<svg xmlns="http://www.w3.org/2000/svg" viewBox="0 0 64 64">
  <defs>
    <linearGradient id="green" x1="0%" y1="0%" x2="100%" y2="100%">
      <stop offset="0%" stop-color="#22c55e"></stop>
      <stop offset="100%" stop-color="#16a34a"></stop>
    </linearGradient>
  </defs>

  <!-- Background -->
  <rect width="64" height="64" rx="12" fill="#052e16"></rect>

  <!-- People -->
  <circle cx="20" cy="14" r="3" fill="#86efac"></circle>
  <circle cx="32" cy="10" r="4" fill="#ffffff"></circle>
  <circle cx="44" cy="14" r="3" fill="#86efac"></circle>

  <!-- Shoulders -->
  <path d="M15 23c0-3 2-5 5-5s5 2 5 5" fill="none" stroke="#86efac" stroke-width="3"></path>
  <path d="M25 24c0-5 3-8 7-8s7 3 7 8" fill="none" stroke="#ffffff" stroke-width="4"></path>
  <path d="M39 23c0-3 2-5 5-5s5 2 5 5" fill="none" stroke="#86efac" stroke-width="3"></path>

  <!-- Large H -->
  <path d="M10 28h7v24h-7zm17 0h7v24h-7zm-10 10h10v5H17z" fill="#ffffff"></path>

  <!-- Large R -->
  <path d="M33 28h10c6 0 11 4 11 10
           0 5-3 8-7 9l8 5h-10l-6-4v4h-6V28z
           M39 34v9h4c3 0 5-2 5-5s-2-4-5-4h-4z" fill="url(#green)"></path>
</svg>